<svg width="205" height="206" viewBox="0 0 205 206" fill="none" xmlns="http://www.w3.org/2000/svg">
<path d="M102.843 205.234C159.263 205.234 205 159.514 205 103.114C205 46.7149 159.263 0.994141 102.843 0.994141C46.4225 0.994141 0.685059 46.7149 0.685059 103.114C0.685059 159.514 46.4225 205.234 102.843 205.234Z" fill="white"/>
<mask id="mask0_12747_67973" style="mask-type:luminance" maskUnits="userSpaceOnUse" x="0" y="0" width="205" height="206">
<path d="M102.843 205.188C159.263 205.188 205 159.467 205 103.067C205 46.668 159.263 0.947266 102.843 0.947266C46.4225 0.947266 0.685059 46.668 0.685059 103.067C0.685059 159.467 46.4225 205.188 102.843 205.188Z" fill="white"/>
</mask>
<g mask="url(#mask0_12747_67973)">
<path d="M138.294 207.006H87.0757L84.2302 176.137L84.0902 174.692C82.6442 158.418 81.6179 147.18 81.6179 147.18H130.644V147.366C130.924 149.558 134.423 176.603 138.294 207.006Z" fill="#37474F"/>
<path d="M94.4925 207.007H93.6995C92.3934 194.323 91.1805 181.609 90.061 168.863L89.7811 165.412L88.8015 153.662C88.8015 153.649 88.8039 153.637 88.8086 153.626C88.8133 153.615 88.8202 153.604 88.8288 153.596C88.8375 153.587 88.8478 153.58 88.8591 153.575C88.8704 153.571 88.8826 153.568 88.8948 153.568C88.9071 153.568 88.9192 153.571 88.9305 153.575C88.9418 153.58 88.9521 153.587 88.9608 153.596C88.9694 153.604 88.9763 153.615 88.981 153.626C88.9857 153.637 88.9881 153.649 88.9881 153.662C89.3613 157.112 89.6878 160.61 90.061 164.06C90.1543 165.319 90.2942 166.578 90.4342 167.837C91.7403 180.94 93.0464 193.997 94.4925 207.007Z" fill="#263238"/>
<path d="M123.554 147.18L116.977 190.639L116.743 192.085L116.137 196.048V196.328L115.997 197.354L114.504 207.006H80.3584C78.6325 197.354 76.9998 188.028 75.5071 179.774L75.3672 178.888L69.7695 147.226L123.554 147.18Z" fill="#263238"/>
<path d="M130.691 147.181C130.654 147.236 130.637 147.302 130.644 147.368C130.271 149.886 126.026 177.024 119.029 194.837C118.986 194.985 118.924 195.126 118.843 195.257L116.09 196.283L113.665 197.262H113.618L112.638 197.728C110.679 198.614 108.3 199.733 105.641 201.179L105.455 201.272L105.222 201.412L104.429 201.832C104.427 201.927 104.411 202.021 104.382 202.112C104.335 202.811 104.195 204.49 104.055 206.914H55.5889C58.7609 175.113 61.653 147.088 61.653 147.088L130.691 147.181Z" fill="#37474F"/>
<path d="M67.1108 154.735C65.758 172.175 64.4985 189.568 63.0991 207.008H62.446C63.9077 189.568 65.3226 172.144 66.6909 154.735C66.7376 154.455 67.1108 154.455 67.1108 154.735Z" fill="#263238"/>
<path d="M121.315 194.044C115.484 196.049 109.84 198.894 104.429 201.878C104.195 202.018 104.335 202.344 104.569 202.251C110.259 199.78 116.09 197.448 121.641 194.697C121.695 194.683 121.745 194.657 121.788 194.621C121.83 194.586 121.864 194.541 121.887 194.49C121.91 194.44 121.921 194.384 121.92 194.329C121.919 194.273 121.906 194.219 121.881 194.169C121.856 194.119 121.821 194.076 121.777 194.042C121.733 194.008 121.682 193.984 121.628 193.972C121.574 193.96 121.517 193.96 121.463 193.973C121.409 193.985 121.358 194.01 121.315 194.044Z" fill="#263238"/>
<path d="M123.134 154.968C123.134 154.782 122.761 154.735 122.761 154.921C122.808 161.683 122.388 167.652 121.828 173.947C121.548 176.884 119.216 193.112 114.131 191.899C113.245 191.713 112.825 190.873 112.685 189.568C112.545 188.262 113.105 186.164 113.385 184.625C113.945 181.221 114.411 177.817 114.691 174.413C115.267 168.018 115.188 161.581 114.458 155.201C114.458 155.015 114.131 155.015 114.131 155.248C114.131 164.108 113.898 172.921 112.592 181.687C111.939 185.931 109.84 192.272 114.225 192.925C118.609 193.578 121.641 182.946 122.201 180.055C123.741 171.942 123.787 163.175 123.134 154.968Z" fill="#263238"/>
<path d="M114.271 192.366C113.806 193.457 113.416 194.579 113.105 195.723C112.872 196.609 112.545 197.542 112.639 198.475C112.639 198.661 112.872 198.661 112.965 198.521C113.058 198.381 113.851 196.749 114.178 195.863C114.504 194.977 114.971 193.765 115.297 192.739C115.343 192.668 115.372 192.588 115.382 192.505C115.392 192.422 115.384 192.337 115.357 192.258C115.33 192.178 115.286 192.106 115.227 192.045C115.168 191.985 115.097 191.939 115.018 191.911C114.939 191.882 114.854 191.871 114.771 191.88C114.687 191.888 114.607 191.915 114.535 191.959C114.463 192.003 114.402 192.062 114.357 192.132C114.311 192.203 114.282 192.283 114.271 192.366Z" fill="#263238"/>
<path d="M91.2274 160.237C91.2399 159.53 91.1615 158.825 90.9942 158.138C90.9942 158.045 90.8542 158.045 90.8076 158.138C90.6614 158.734 90.5831 159.344 90.5744 159.957C90.4811 160.656 90.3878 161.356 90.3411 162.055C90.187 163.485 89.9377 164.902 89.5948 166.299C88.958 168.936 87.6203 171.353 85.723 173.293C83.8187 175.122 81.5876 176.577 79.1458 177.583C76.3936 178.749 73.5481 179.169 70.7026 180.008C70.6852 180.024 70.6723 180.045 70.665 180.067C70.6577 180.09 70.6564 180.114 70.661 180.137C70.6657 180.161 70.6763 180.183 70.6917 180.201C70.7071 180.219 70.727 180.233 70.7493 180.241C73.7813 180.334 77.0467 179.495 79.8455 178.422C82.4213 177.474 84.7608 175.979 86.7026 174.039C88.687 172.087 90.0778 169.614 90.7143 166.905C91.0153 165.508 91.2025 164.089 91.2741 162.661C91.2741 161.822 91.2741 161.076 91.2274 160.237Z" fill="#263238"/>
<path d="M108.487 86.2335C117.536 96.5388 145.105 123.398 166.609 132.91C175.006 136.594 185.175 134.636 189.28 130.486C203.88 115.797 144.219 88.8448 144.219 88.8448C144.219 88.8448 133.77 81.757 116.277 75.7884C99.5306 70.0995 102.843 79.8452 108.487 86.2335Z" fill="#D3766A"/>
<path d="M150.19 90.1976L144.312 122.186C144.312 122.186 117.723 99.1506 108.44 87.5396C99.1574 75.9287 101.023 68.9808 120.055 76.5816C139.087 84.1823 150.19 90.1976 150.19 90.1976Z" fill="#3B8BFF"/>
<path d="M140.16 115.984C140.239 115.169 140.364 114.359 140.534 113.559L140.953 111.041C141.233 109.362 141.513 107.683 141.84 106.005C142.493 102.647 143.099 99.29 143.799 95.9327C143.985 95 144.172 94.0674 144.405 93.1815C144.639 92.2955 144.918 91.2696 145.152 90.2904C145.152 90.2438 145.245 90.2438 145.245 90.337C145.105 91.1764 145.012 92.0157 144.918 92.8551C144.825 93.6944 144.639 94.5804 144.452 95.4197C144.172 97.0984 143.846 98.7771 143.519 100.456C142.866 103.767 142.213 107.077 141.513 110.341C141.327 111.274 141.093 112.207 140.907 113.093C140.723 114.068 140.49 115.033 140.207 115.984H140.16Z" fill="#263238"/>
<path d="M145.898 113.699L144.312 122.185C144.312 122.185 117.723 99.1501 108.44 87.5392C105.362 83.6222 103.449 80.3581 102.983 77.8867C110.446 84.0885 134.283 103.906 145.898 113.699Z" fill="#263238"/>
<path d="M158.446 47.8102C156.907 46.0382 146.131 31.7694 137.035 27.153C132.23 24.6816 118.236 19.4124 116.37 22.1636C114.504 24.9147 118.143 27.0131 118.143 27.0131C118.143 27.0131 111.845 24.7748 109.513 28.2721C107.181 31.7694 113.292 35.4998 113.292 35.4998C113.292 35.4998 106.668 33.6812 104.615 37.3184C102.563 40.9555 109.28 43.7067 109.28 43.7067C109.28 43.7067 103.309 41.7482 102.889 45.4787C102.329 49.9552 113.758 52.3799 118.563 56.0171C119.636 56.8098 139.321 74.2495 139.321 74.2495L158.446 47.8102Z" fill="#D3766A"/>
<path d="M109.327 43.9396C117.723 45.7581 121.082 47.9964 127.099 53.8718C127.239 53.9651 127.426 53.8252 127.332 53.6853C121.921 47.3902 118.096 43.9862 109.373 43.5665C108.953 43.5199 108.907 43.8929 109.327 43.9396Z" fill="#263238"/>
<path d="M113.292 35.7802C121.828 38.3914 125.513 40.7696 132.324 46.4585C132.342 46.477 132.367 46.4874 132.394 46.4874C132.42 46.4874 132.445 46.477 132.464 46.4585C132.482 46.4399 132.493 46.4148 132.493 46.3885C132.493 46.3623 132.482 46.3371 132.464 46.3186C126.259 40.1634 122.388 36.8527 113.478 35.3605C113.105 35.2672 112.918 35.6403 113.292 35.7802Z" fill="#263238"/>
<path d="M118.469 27.3397C126.539 30.464 130.691 32.8887 136.569 39.2771C136.708 39.417 136.942 39.2304 136.848 39.0906C131.484 32.0028 126.306 28.8785 118.563 27.1066C118.05 26.9667 117.956 27.1066 118.469 27.3397Z" fill="#263238"/>
<path d="M140.347 81.1038C140.347 81.1038 130.225 77.4667 126.12 74.902C122.015 72.3373 110.26 57.1359 113.385 54.4313C117.443 50.8874 125.933 58.3483 129.665 62.545C129.665 62.545 138.994 54.3847 146.271 58.3949C153.548 62.4051 140.347 81.1038 140.347 81.1038Z" fill="#D3766A"/>
<path d="M114.831 53.8251C120.802 53.2655 125.327 59.0943 129.198 62.8713C129.257 62.9256 129.327 62.9666 129.403 62.9915C129.479 63.0164 129.56 63.0248 129.639 63.0159C129.719 63.0071 129.796 62.9813 129.864 62.9403C129.933 62.8992 129.992 62.8439 130.038 62.7781C134.19 59.6072 140.953 56.3431 146.178 58.0684C146.318 58.1151 146.411 57.8819 146.271 57.8353C140.907 55.2706 134.003 57.8819 129.665 61.6123C125.746 57.6954 120.988 52.0531 114.784 53.7785L114.831 53.8251Z" fill="#263238"/>
<path d="M178.411 129.786C183.122 132.35 187.461 132.77 191.612 128.62C206.166 113.931 163.064 49.8616 156.207 45.4784C152.475 43.1002 130.831 72.9435 135.682 78.9122C137.688 81.3836 144.219 88.8444 144.219 88.8444C144.219 88.8444 165.257 122.651 178.411 129.786Z" fill="#D3766A"/>
<path d="M172.58 126.009C171.601 124.843 170.668 123.631 169.735 122.418C168.802 121.206 167.822 120.04 166.843 118.828L161.198 111.693C157.466 106.937 153.781 102.087 150.236 97.1913L147.251 93.0412C146.271 91.6423 145.198 90.29 144.219 88.8445C144.079 88.7046 143.845 88.8911 143.985 89.031C144.778 90.3366 145.525 91.6889 146.364 92.9479C147.204 94.2069 147.997 95.5126 148.883 96.7716C150.563 99.2896 152.335 101.761 154.155 104.232C157.746 109.082 161.478 113.885 165.49 118.455C166.609 119.76 167.776 121.019 168.895 122.278C170.015 123.537 171.367 124.75 172.534 126.055C172.58 126.102 172.627 126.055 172.58 126.009Z" fill="#263238"/>
<path d="M136.335 173.712L55.9155 178.795C55.9155 178.795 64.3587 102.181 92.347 74.0631C95.7989 70.6125 105.968 70.1928 110.913 73.7367C123.787 82.9229 136.522 173.432 136.335 173.712Z" fill="#3B8BFF"/>
<path d="M123.554 104.885C121.865 105.827 120.243 106.886 118.703 108.056C117.77 108.755 116.93 109.501 116.09 110.247L115.437 110.853C114.411 111.786 113.432 112.765 112.499 113.744C110.493 115.796 108.534 117.895 106.061 119.527C104.845 120.352 103.507 120.981 102.096 121.392C100.687 121.792 99.2223 121.965 97.7581 121.905L95.5657 121.672L93.4666 121.159L91.4141 120.413C90.761 120.086 90.108 119.806 89.5016 119.433C87.2698 118.092 85.1344 116.596 83.1109 114.957L82.5045 114.491L82.0846 114.164C79.9939 112.556 77.7242 111.195 75.3208 110.107C74.2949 109.675 73.2337 109.332 72.1488 109.081L72.4753 108.195C73.5675 108.502 74.6293 108.908 75.6473 109.408C78.0209 110.627 80.2571 112.096 82.3179 113.791C82.4929 113.889 82.6505 114.015 82.7844 114.164L83.3441 114.537C85.3445 116.207 87.4823 117.704 89.7348 119.014C92.174 120.416 94.9443 121.141 97.7581 121.112C99.1382 121.127 100.511 120.906 101.816 120.459C103.113 120.017 104.339 119.389 105.455 118.594C107.694 117.009 109.56 114.864 111.519 112.812L113.851 110.434L114.411 109.921C115.474 108.85 116.595 107.838 117.77 106.89C119.461 105.558 121.272 104.388 123.181 103.393C123.321 103.906 123.461 104.372 123.554 104.885ZM130.504 137.339C129.172 137.201 127.832 137.154 126.493 137.199C123.587 137.261 120.702 137.7 117.91 138.505C115.161 139.344 112.479 140.388 109.886 141.629C107.274 142.795 104.755 144.007 102.05 144.66C101.358 144.815 100.657 144.924 99.9505 144.987H97.9914C96.6172 144.864 95.2668 144.551 93.9797 144.054C91.3931 142.964 89.1172 141.25 87.3558 139.065C86.4539 137.914 85.6143 136.702 84.8368 135.428L84.2771 134.495L82.7844 131.93C81.3849 129.459 79.9389 126.987 77.9797 124.796C77.8864 124.703 77.8398 124.609 77.7465 124.563C77.4125 124.182 77.0541 123.824 76.6736 123.49C74.9848 121.945 73.0444 120.699 70.936 119.806C70.1908 119.509 69.4274 119.26 68.6502 119.06C68.557 119.433 68.417 119.806 68.3237 120.226C69.0521 120.417 69.7686 120.65 70.4695 120.926C72.5445 121.669 74.4712 122.774 76.1604 124.19L77.28 125.216L77.4199 125.355C79.3663 127.404 81.0435 129.691 82.4112 132.163C82.8777 132.909 83.2975 133.702 83.764 134.495L84.3237 135.428C85.1398 136.779 86.0273 138.087 86.9826 139.344L88.382 140.977L89.968 142.469L91.7406 143.728L93.6532 144.754C95.0015 145.353 96.4326 145.746 97.8981 145.919C98.6725 146.005 99.4532 146.021 100.23 145.966H100.79C101.294 145.938 101.794 145.86 102.283 145.733C105.175 145.173 107.834 143.961 110.4 142.842C112.966 141.679 115.617 140.713 118.33 139.951C121.001 139.18 123.76 138.757 126.539 138.692C127.956 138.645 129.374 138.692 130.784 138.832L130.504 137.339ZM124.767 109.781C122.299 110.494 119.713 110.7 117.163 110.387C116.803 110.366 116.444 110.32 116.09 110.247L114.411 109.921C112.593 109.444 110.802 108.868 109.047 108.195C106.388 107.17 103.729 106.051 100.93 105.351L98.831 104.978L96.6852 104.791L94.4928 104.885L92.347 105.304C90.9108 105.636 89.5394 106.203 88.2887 106.983C87.0637 107.781 85.9634 108.755 85.0234 109.874C84.0115 111.1 83.1064 112.411 82.3179 113.791C82.2573 113.925 82.1789 114.051 82.0846 114.164L80.452 117.195C79.3208 119.383 78.059 121.501 76.6736 123.537L76.1604 124.236L76.0672 124.376C74.4314 126.641 72.5197 128.693 70.3762 130.485C68.5619 132.074 66.5173 133.378 64.312 134.355L63.8922 135.987C66.6911 135.101 69.1634 133.422 71.3558 131.604C73.5995 129.758 75.5913 127.626 77.28 125.262C77.4084 125.026 77.5651 124.807 77.7465 124.609C79.1615 122.429 80.4541 120.172 81.6182 117.848C82.1313 116.869 82.5978 115.889 83.1109 114.957L83.3441 114.537C84.0677 113.161 84.9106 111.85 85.8631 110.62C86.7285 109.545 87.7324 108.588 88.8485 107.776C89.9927 107.006 91.2525 106.424 92.5803 106.051C95.2684 105.265 98.116 105.201 100.837 105.864C103.589 106.47 106.201 107.543 108.86 108.615C110.493 109.268 112.172 109.921 113.851 110.434L115.437 110.853L117.023 111.18C119.688 111.647 122.421 111.551 125.047 110.9L124.767 109.781ZM133.023 151.655L130.411 152.541C127.771 153.484 125.056 154.201 122.295 154.686C119.559 155.145 116.763 155.113 114.038 154.593C111.306 154.112 108.721 153.011 106.481 151.375C104.364 149.819 102.452 148.001 100.79 145.966L100.417 145.546L99.9505 144.987C98.3301 142.939 96.5688 141.007 94.6794 139.205L93.0001 137.852L91.2275 136.64L89.2683 135.707L87.1692 135.008C86.2227 134.758 85.254 134.602 84.2771 134.542H82.831C81.3562 134.629 79.9061 134.96 78.5395 135.521C75.7873 136.593 73.3616 138.179 71.0292 139.718C68.6958 141.31 66.248 142.728 63.7056 143.961L61.7931 144.754C61.6532 145.36 61.5599 145.919 61.4199 146.526C62.4151 146.152 63.3946 145.733 64.3587 145.267C66.9213 143.974 69.3848 142.493 71.729 140.837C74.108 139.298 76.3937 137.619 78.9593 136.547C80.21 136.02 81.5294 135.675 82.8777 135.521C83.3571 135.459 83.8413 135.444 84.3237 135.474H84.8368C85.5576 135.518 86.2746 135.612 86.9826 135.754C89.7332 136.358 92.2755 137.677 94.3529 139.578C96.1748 141.259 97.8595 143.084 99.3908 145.033C99.6223 145.286 99.8402 145.551 100.044 145.826L100.23 146.013C101.956 148.158 103.776 150.303 106.015 152.028C108.294 153.848 110.958 155.123 113.805 155.758C116.658 156.38 119.604 156.443 122.481 155.945C125.319 155.422 128.1 154.626 130.784 153.567L133.21 152.634L133.023 151.655Z" fill="white"/>
<path d="M110.073 86.8845C105.362 87.6772 97.8513 80.0765 95.0991 74.1545C94.9125 73.7348 95.7988 69.6314 96.6385 64.5953C97.1049 61.5177 97.5714 58.1137 97.8047 54.9428C97.8513 54.29 117.257 61.0514 117.257 61.0514C117.257 61.0514 114.878 67.533 114.551 73.0354C114.542 73.4711 114.558 73.907 114.598 74.341C114.598 74.3876 114.644 74.4809 114.598 74.5275C114.878 77.0456 114.644 86.1384 110.073 86.8845Z" fill="#D3766A"/>
<path d="M112.592 74.528H114.598V74.3415C114.558 73.9075 114.542 73.4716 114.551 73.0359C114.878 67.5335 117.257 61.0519 117.257 61.0519C117.257 61.0519 101.49 55.5496 98.3177 54.9434C98.6909 58.6271 100.93 73.5022 112.592 74.528Z" fill="#263238"/>
<path d="M90.3411 36.8998C89.7814 44.2208 97.8047 63.2459 103.636 66.5567C112.172 71.4062 123.88 69.4477 127.426 59.7486C130.971 50.0496 120.009 25.7552 113.665 22.9108C104.335 18.8073 91.1808 26.0816 90.3411 36.8998Z" fill="#D3766A"/>
<path d="M112.545 45.0133C112.499 44.9667 112.452 45.1065 112.499 45.1532C113.058 46.4122 113.478 47.951 112.499 48.8836C112.499 48.8836 112.499 48.9769 112.545 48.9302C113.898 48.1375 113.292 46.0858 112.545 45.0133Z" fill="#263238"/>
<path d="M110.819 44.1279C108.673 44.8274 110.259 49.0241 112.219 48.3713C114.178 47.7184 112.592 43.5683 110.819 44.1279Z" fill="#263238"/>
<path d="M119.682 41.8438L119.822 41.937C120.289 43.2427 120.988 44.6882 122.341 44.6882C122.388 44.6882 122.434 44.7348 122.388 44.7815C120.848 45.1079 119.915 43.196 119.682 41.8438Z" fill="#263238"/>
<path d="M120.335 40.0712C122.388 39.1386 124.114 43.2887 122.248 44.1281C120.382 44.9674 118.656 40.864 120.335 40.0712Z" fill="#263238"/>
<path d="M109.047 43.5678C109.591 43.2847 110.121 42.9734 110.633 42.6352C111.239 42.2622 111.799 42.0757 112.079 41.3762C112.156 41.1872 112.166 40.9772 112.107 40.7818C112.047 40.5863 111.922 40.4174 111.752 40.3037C110.959 39.8374 110.12 40.0706 109.373 40.4902C108.987 40.6675 108.64 40.9195 108.352 41.2317C108.063 41.5438 107.84 41.9099 107.694 42.3088C107.321 43.1482 108.3 43.8942 109.047 43.5678Z" fill="#263238"/>
<path d="M120.569 36.0603L118.749 36.2002C118.114 36.3651 117.442 36.3159 116.837 36.0603C116.655 35.9454 116.519 35.7712 116.451 35.5672C116.383 35.3633 116.387 35.1422 116.464 34.9412C116.837 34.1485 117.676 33.8221 118.516 33.7288C118.934 33.6471 119.364 33.6504 119.781 33.7386C120.198 33.8267 120.593 33.9978 120.942 34.2418C121.735 34.7081 121.408 35.8738 120.569 36.0603Z" fill="#263238"/>
<path d="M114.971 57.0911C115.384 57.3611 115.88 57.4766 116.37 57.4175C116.858 57.2565 117.293 56.9664 117.63 56.5781H117.723C117.637 56.9104 117.461 57.2125 117.214 57.4511C116.967 57.6897 116.659 57.8556 116.324 57.9304C116.033 57.9435 115.744 57.8765 115.489 57.7367C115.234 57.5969 115.023 57.3897 114.878 57.1377C114.831 57.1377 114.924 57.0444 114.971 57.0911Z" fill="#263238"/>
<path d="M114.924 52.662C115.442 53.0592 116.038 53.3434 116.673 53.496C117.308 53.6486 117.967 53.6663 118.609 53.548C119.174 53.4483 119.722 53.2759 120.242 53.035L120.522 52.8951L120.802 52.7552C120.867 52.7094 120.916 52.6439 120.941 52.5684C120.966 52.4929 120.966 52.4113 120.942 52.3356C120.925 52.3167 120.912 52.2945 120.904 52.2704C120.896 52.2464 120.893 52.2209 120.895 52.1957H120.848V52.1024C120.475 51.0766 119.822 49.5844 119.822 49.5844C119.822 49.5844 122.434 49.7709 122.201 49.258C120.335 45.0146 118.283 40.305 115.531 36.4813C115.437 36.3414 115.204 36.4347 115.297 36.5746C116.93 40.7247 119.262 44.595 120.988 48.6984C120.289 48.6984 119.169 48.6518 118.656 48.8383C118.143 49.0248 119.962 51.7294 120.102 52.1957C118.516 53.035 117.023 52.9884 114.971 52.4755C114.878 52.4755 114.784 52.6154 114.924 52.662Z" fill="#263238"/>
<path d="M119.449 52.7532C119.162 53.6598 118.648 54.4783 117.956 55.1313C117.573 55.4955 117.082 55.7247 116.557 55.7841C115.391 55.8774 115.018 54.9448 114.878 54.0588C114.824 53.5772 114.84 53.0904 114.924 52.6133C116.377 53.1529 117.966 53.202 119.449 52.7532Z" fill="#263238"/>
<path d="M117.956 55.1311C117.573 55.4953 117.082 55.7245 116.557 55.7839C115.391 55.8772 115.018 54.9446 114.878 54.0586C116.044 53.7788 117.443 54.1053 117.956 55.1311Z" fill="#FF97B8"/>
<path d="M111.985 28.1782C111.649 29.4254 111.002 30.567 110.104 31.4965C109.207 32.4261 108.089 33.1133 106.854 33.4941C104.429 34.2401 101.396 33.7272 99.5306 31.9553C99.4839 31.9086 99.3906 31.9553 99.4373 32.0485C101.443 33.9604 104.289 34.9862 107.041 34.1002C108.33 33.6461 109.48 32.8665 110.379 31.837C111.278 30.8076 111.896 29.5632 112.172 28.2248C112.172 28.085 111.985 28.0383 111.985 28.1782Z" fill="#263238"/>
<path d="M98.3644 16.6151C95.1457 17.1747 92.6734 20.0192 92.067 23.1434C91.731 25.0018 91.892 26.916 92.5335 28.6924C92.5335 28.7856 92.6268 28.739 92.6268 28.6457C91.8804 25.7547 92.3002 22.2574 94.2594 19.8793C96.2186 17.5011 98.9708 16.5219 101.816 17.5011C103.32 18.0035 104.605 19.0079 105.455 20.3456C105.548 20.4855 105.781 20.3456 105.688 20.159C104.969 18.8974 103.884 17.8834 102.576 17.2507C101.269 16.618 99.8004 16.3964 98.3644 16.6151Z" fill="#263238"/>
<path d="M122.901 13.3038C121.399 11.7632 119.399 10.8049 117.257 10.5992C114.271 10.2728 111.799 11.7184 109.327 13.2572C109.28 13.3038 109.327 13.397 109.42 13.3504C111.472 12.0914 113.665 10.9256 116.184 10.9723C118.252 10.9918 120.249 11.7341 121.828 13.0706C125.047 15.8684 125.746 20.9511 123.321 24.4484C122.621 25.4397 121.727 26.2777 120.692 26.9112C119.658 27.5446 118.504 27.9601 117.303 28.1322C117.21 28.1788 117.21 28.3187 117.303 28.3187C121.735 27.8058 125.373 23.9355 125.28 19.4123C125.288 17.1487 124.438 14.9661 122.901 13.3038Z" fill="#263238"/>
<path d="M90.3411 38.7628C90.3411 38.7628 88.0553 33.0739 88.7084 30.6958C89.3615 28.3176 92.3935 26.4991 92.3935 26.4991C92.3935 26.4991 92.067 20.9501 96.3586 18.5719C100.65 16.1938 104.615 18.7118 104.615 18.7118C104.615 18.7118 107.601 10.6448 115.391 10.8313C123.181 11.0178 126.306 20.5304 121.828 26.1726C118.656 30.1362 111.379 29.157 111.379 29.157C111.379 29.157 106.994 35.4054 100.51 32.5144C100.51 32.5144 98.1312 37.1774 95.0058 36.1049C95.0058 36.1049 92.7201 38.8094 90.3411 38.7628Z" fill="#263238"/>
<path opacity="0.2" d="M92.0671 31.1172C93.1866 34.0083 96.2653 42.4017 96.0321 44.6399C95.7989 46.8782 95.519 52.6137 94.6793 53.4064C91.9738 47.2512 90.0613 40.5831 90.3411 36.8993C90.5165 34.8746 91.1039 32.907 92.0671 31.1172Z" fill="#263238"/>
<path d="M97.245 52.101C97.245 52.101 91.2275 46.7852 88.7085 49.1167C86.1896 51.4482 91.7872 59.8416 95.519 60.2613C99.2508 60.681 99.6706 57.277 99.6706 57.277L97.245 52.101Z" fill="#D3766A"/>
<path d="M90.3878 51.4935C90.2945 51.4935 90.2945 51.5867 90.3878 51.5867C93.0001 51.9598 94.7727 53.8716 96.2187 55.9233C95.2858 55.2239 94.2129 54.9907 93.2333 56.1099C93.1867 56.1565 93.28 56.2498 93.3266 56.2498C93.7098 56.0109 94.1574 55.8962 94.6082 55.9212C95.0591 55.9463 95.4912 56.1099 95.8456 56.3896C96.4206 56.8867 96.9513 57.4327 97.4316 58.0217C97.5715 58.2082 97.9447 58.0217 97.8048 57.7886H97.7581C97.1051 54.6643 93.6998 50.9805 90.3878 51.4935Z" fill="#263238"/>
<path d="M118.749 28.3184C119.889 29.8175 120.904 31.4083 121.781 33.0746C122.714 34.7533 123.507 36.4786 124.254 38.204C125.68 41.7193 126.789 45.3555 127.566 49.0688C128 50.9203 128.25 52.8103 128.312 54.711C128.399 56.6399 128.131 58.5684 127.519 60.3999C126.87 62.2089 125.779 63.8276 124.347 65.1096C122.889 66.3311 121.233 67.2933 119.449 67.954C121.179 67.2169 122.772 66.1921 124.16 64.9231C125.551 63.6512 126.594 62.0464 127.192 60.26C127.728 58.4772 127.965 56.6179 127.892 54.7577C127.83 52.8723 127.58 50.9977 127.146 49.1621C126.379 45.472 125.302 41.8531 123.927 38.3439C123.227 36.5719 122.434 34.8466 121.595 33.1679C120.765 31.4847 119.814 29.864 118.749 28.3184Z" fill="#263238"/>
<path d="M79.3791 86.7022C62.0263 109.971 33.1517 170.543 28.9068 179.45C26.0146 185.512 57.6415 201.459 58.9476 197.076C60.6736 191.434 88.9418 117.105 92.9068 89.9663C95.0992 75.0913 85.35 78.6818 79.3791 86.7022Z" fill="#D3766A"/>
<path d="M59.8339 193.999C59.0875 199.501 55.3557 210.552 52.6035 212.231C49.8514 213.91 35.2508 213.537 27.9271 213.537C20.6035 213.537 19.1575 211.485 19.2974 208.967C19.4373 206.449 34.7843 205.983 34.7843 205.983C34.7843 205.983 14.2129 211.858 9.08166 212.837C3.95046 213.817 -8.03789 216.801 -9.76384 212.511C-10.5102 210.552 -7.24488 208.594 -7.24488 208.594C-7.24488 208.594 -12.2361 210.086 -13.0291 207.615C-13.8221 205.143 -9.99708 203.232 -9.99708 203.232C-9.99708 203.232 -13.1224 203.838 -13.1691 201.553C-13.3557 196.377 6.18953 193.859 6.18953 193.859C6.18953 193.859 -8.73758 201.133 -9.2507 196.936C-9.90376 191.108 20.7901 184.766 23.9621 182.201C26.291 180.283 28.4595 178.177 30.4461 175.906L59.8339 193.999Z" fill="#D3766A"/>
<path d="M19.3907 210.272C19.3316 209.913 19.3648 209.545 19.4872 209.203C19.6096 208.86 19.8172 208.554 20.0904 208.314C20.6008 207.815 21.2026 207.419 21.863 207.148C23.2111 206.551 24.6183 206.098 26.0612 205.796C28.9534 205.05 31.9388 204.537 34.8776 203.744C31.8304 203.714 28.7911 204.058 25.828 204.77C24.3031 205.099 22.8392 205.666 21.4898 206.449C20.791 206.841 20.1735 207.363 19.6706 207.987C19.4343 208.313 19.2846 208.694 19.2357 209.094C19.1867 209.493 19.24 209.899 19.3907 210.272Z" fill="#263238"/>
<path d="M-7.24487 208.594C-5.14575 208.081 -3.04661 207.521 -0.994131 206.915L5.25658 205.05L11.414 203.092L17.6648 201.18C15.4953 201.424 13.3448 201.814 11.2274 202.345C9.08167 202.812 7.02919 203.418 4.93006 204.071C2.83094 204.724 0.825112 205.376 -1.22737 206.169C-3.27985 206.962 -5.28569 207.708 -7.24487 208.594Z" fill="#263238"/>
<path d="M12.6735 196.051C10.679 196.167 8.69752 196.448 6.7493 196.89C4.79327 197.272 2.86176 197.77 0.965047 198.382C-0.958318 198.963 -2.84344 199.664 -4.67927 200.481C-6.5165 201.267 -8.29384 202.187 -9.99707 203.232C-8.08453 202.579 -6.26527 201.833 -4.35274 201.227C-2.4402 200.621 -0.620957 199.921 1.24493 199.362L6.93589 197.636L12.6735 196.051Z" fill="#263238"/>
<path d="M9.64149 191.154C6.42515 191.399 3.2561 192.074 0.218735 193.159C-2.85082 194.157 -5.76983 195.569 -8.45764 197.356C-5.42557 196.284 -2.4868 195.118 0.545272 194.139C3.57734 193.159 6.60941 192.134 9.64149 191.154Z" fill="#263238"/>
<path d="M85.723 125.823L53.1632 125.636C53.1632 125.636 71.2157 95.4201 81.0116 84.2755C90.8075 73.1309 97.9912 73.6905 93.8396 93.7414C89.688 113.792 85.723 125.823 85.723 125.823Z" fill="#3B8BFF"/>
<path d="M58.5744 120.46C59.3674 120.367 60.207 120.414 61.0467 120.367H68.6968C72.1021 120.414 75.554 120.414 78.9592 120.507L81.8047 120.647L84.7435 120.833C84.7901 120.88 84.7901 120.927 84.7435 120.927L82.1779 121.067H74.4344L64.3586 120.833L61.5131 120.694C60.5336 120.647 59.554 120.647 58.5744 120.554C58.5277 120.507 58.4811 120.46 58.5744 120.46Z" fill="#263238"/>
<path d="M90.2012 110.762C90.9105 109.704 91.402 108.515 91.6473 107.265C91.2843 108.342 90.8318 109.387 90.2945 110.389C90.3759 109.932 90.4849 109.481 90.621 109.037C90.9942 107.405 91.3674 105.773 91.6473 104.141H91.6006C90.761 106.892 90.0613 109.736 89.2683 112.534C88.4753 115.332 87.7289 118.223 86.9359 121.067C86.5161 122.606 86.0963 124.145 85.7231 125.73L83.6706 125.824C83.6514 125.836 83.6356 125.854 83.6247 125.874C83.6137 125.894 83.608 125.917 83.608 125.94C83.608 125.963 83.6137 125.986 83.6247 126.006C83.6356 126.027 83.6514 126.044 83.6706 126.057C84.4637 126.096 85.2586 126.08 86.0496 126.01C87.7289 121.021 88.9884 115.891 90.2012 110.762Z" fill="#263238"/>
<path d="M92.5335 75.4146C94.4724 79.9124 97.5811 83.8089 101.536 86.6991C103.496 88.098 105.688 89.2638 108.114 89.5902C109.367 89.8417 110.667 89.7118 111.845 89.2171C112.947 88.6212 113.878 87.7546 114.551 86.6991C115.319 85.5308 115.915 84.259 116.324 82.9221C116.754 81.4043 117.097 79.8629 117.35 78.3057H117.443C117.21 79.7979 117.117 81.29 116.79 82.7356C116.524 84.0319 116.084 85.2866 115.484 86.466C114.9 87.5977 114.071 88.5852 113.058 89.357C112 90.1565 110.699 90.5681 109.373 90.5228C106.761 90.4762 104.289 89.4503 102.143 88.0514C100.022 86.6613 98.1326 84.9461 96.5451 82.9687C94.7534 80.7065 93.336 78.1719 92.3469 75.4612C92.3407 75.4365 92.3446 75.4103 92.3577 75.3885C92.3708 75.3666 92.3921 75.3509 92.4168 75.3447C92.4416 75.3385 92.4678 75.3424 92.4896 75.3555C92.5115 75.3686 92.5273 75.3899 92.5335 75.4146Z" fill="#263238"/>
</g>
</svg>
