<svg width="126" height="93" viewBox="0 0 126 93" fill="none" xmlns="http://www.w3.org/2000/svg">
<path d="M1 88.0228C1 88.0228 23.9296 97.3209 39.3023 86.6797C60.8344 71.8027 56.6418 45.6646 50.4306 41.0671C44.2195 36.4697 36.766 44.3215 44.7888 51.8117C52.8116 59.3018 66.6832 58.9402 73.5673 47.4725C80.4513 36.0048 74.7578 22.0576 90.9068 16.582" stroke="#263238" stroke-width="0.75" stroke-miterlimit="10" stroke-dasharray="4 5"/>
<path d="M89.8199 8.52311L85.8344 19.3709L94.1677 12.9139L125.948 1.39453L89.8199 8.52311Z" fill="#3C8BFF"/>
<path opacity="0.1" d="M89.8199 8.52311L85.8344 19.3709L94.1677 12.9139L125.948 1.39453L89.8199 8.52311Z" fill="black"/>
<path d="M95.2029 15.3936L85.8344 19.3711L94.1677 12.9141L95.2029 15.3936Z" fill="#263238"/>
<path d="M94.1677 12.9139L125.948 1.39453L99.8612 26.7578L94.1677 12.9139Z" fill="#3C8BFF"/>
<path d="M89.8198 8.5233L76.5693 0L125.948 1.39472L89.8198 8.5233Z" fill="#3C8BFF"/>
</svg>
