<svg width="92" height="57" viewBox="0 0 92 57" fill="none" xmlns="http://www.w3.org/2000/svg">
<path d="M76.5862 46.3535C75.241 45.9612 73.9519 45.4567 72.6067 45.0083L68.7393 43.495C67.3941 42.9905 66.1049 42.43 64.8718 41.8695L62.9661 41.0288L61.0604 40.0759L63.0782 40.6925L65.04 41.4211C66.3852 41.8695 67.6743 42.374 68.9635 42.9345L72.7748 44.5599C74.064 45.1204 75.3531 45.6809 76.5862 46.3535Z" fill="#263238"/>
<path d="M54.2784 11.2656C55.5676 10.3688 56.8567 9.47202 58.2019 8.63127C59.5471 7.79052 60.8363 6.89372 62.1815 6.10903L66.217 3.69888L68.2909 2.52183C69.0195 2.18553 69.6921 1.79318 70.3647 1.40084L68.459 2.80208L66.4973 4.09122C65.2081 4.98802 63.863 5.77272 62.5178 6.61347L58.4261 9.02363C57.0809 9.80833 55.6797 10.593 54.2784 11.2656Z" fill="#263238"/>
<path d="M83.2562 5.71694L76.9226 8.63153L70.5889 11.378L64.1993 14.0123L60.9484 15.3015L57.6975 16.4785L60.8363 15.0212L63.975 13.5639L70.3647 10.8175L76.7544 8.18313L83.2562 5.71694Z" fill="#263238"/>
<path d="M88.4128 41.1426L81.5186 39.6853L74.6805 38.0038L67.8985 36.2102L64.5355 35.2573L61.1725 34.2484L64.5916 34.9771L68.0106 35.7057L74.8487 37.3872L81.6307 39.1808L88.4128 41.1426Z" fill="#263238"/>
<path d="M60.1076 25.1113L68.0667 23.3177L76.0258 21.6923L83.9849 20.235L87.9644 19.5063L92 18.8898L88.0205 19.8426L84.097 20.6834L76.1379 22.3088L68.1227 23.8222L60.1076 25.1113Z" fill="#263238"/>
<path d="M7.4767 46.8048L3.32901 24.8892L18.7427 20.0129L40.378 1.90878L50.4109 54.5957L23.6191 45.6838L7.4767 46.8048Z" fill="#3C8BFF" stroke="black" stroke-width="0.25" stroke-miterlimit="10"/>
<path d="M41.1092 1.67469C36.3961 2.57376 34.8371 15.1592 37.6271 29.7851C40.4172 44.411 46.4997 55.5387 51.2128 54.6396C55.9259 53.7406 57.4849 41.1551 54.6948 26.5292C51.9048 11.9034 45.8223 0.775612 41.1092 1.67469Z" fill="#3C8BFF" stroke="black" stroke-width="0.25" stroke-miterlimit="10"/>
<path opacity="0.2" d="M42.1893 5.05139C38.3276 5.78805 37.2049 16.9107 39.6817 29.8946C42.1585 42.8785 47.2969 52.8068 51.1586 52.0702C55.0203 51.3335 56.143 40.2108 53.6662 27.2269C51.1894 14.243 46.051 4.31473 42.1893 5.05139Z" fill="black"/>
<path d="M40.9385 29.5984C40.6022 27.8609 40.378 26.1794 40.1538 24.4979C40.8119 23.7321 41.6721 23.1668 42.6362 22.8668C43.6004 22.5668 44.6294 22.5442 45.6058 22.8014C46.5822 23.0587 47.4665 23.5855 48.1577 24.3216C48.8488 25.0577 49.3189 25.9734 49.5141 26.9641L49.9626 29.4303C50.2256 30.8271 49.9253 32.2714 49.1272 33.4475C48.3291 34.6237 47.098 35.4363 45.7028 35.7079C44.5203 35.9163 43.3021 35.7395 42.2277 35.2034C41.7232 33.4098 41.3309 31.5041 40.9385 29.5984Z" fill="#3C8BFF"/>
<path d="M6.48234 51.0405L17.8241 48.877L12.3417 20.1371L0.999931 22.3007L6.48234 51.0405Z" fill="#3C8BFF" stroke="black" stroke-width="0.25" stroke-miterlimit="10"/>
<path opacity="0.2" d="M6.48234 51.0405L17.8241 48.877L12.3417 20.1371L0.999931 22.3007L6.48234 51.0405Z" fill="#3C8BFF" stroke="black" stroke-width="0.25" stroke-miterlimit="10"/>
<path opacity="0.2" d="M47.2722 51.457C45.6467 50.2239 44.5257 48.4864 43.4608 46.7488C42.4665 45.0036 41.6046 43.1862 40.8825 41.312C40.4901 40.3592 40.2099 39.4063 39.8736 38.4535C39.5373 37.5006 39.257 36.4917 39.0328 35.5388C38.8086 34.586 38.5284 33.5771 38.3042 32.5682C38.08 31.5593 37.8558 30.6065 37.6876 29.5976C36.9141 25.626 36.5013 21.5927 36.4545 17.5468C36.4742 15.517 36.6617 13.4923 37.015 11.4934C37.4074 9.53169 37.9679 7.51389 39.1449 5.88845C38.1467 7.62867 37.5171 9.55561 37.2953 11.5495C36.9972 13.5341 36.866 15.5403 36.9029 17.5468C37.04 21.5553 37.4898 25.547 38.2481 29.4855C38.9392 33.4472 39.9515 37.3462 41.2748 41.1438C41.9582 43.034 42.7826 44.8701 43.741 46.6367C44.6338 48.4336 45.8281 50.064 47.2722 51.457Z" fill="black"/>
</svg>
