<svg width="177" height="41" viewBox="0 0 177 41" fill="none" xmlns="http://www.w3.org/2000/svg">
<path d="M45.1583 30.2275H54.1529V33.7826H41.5358V11.2109H45.1583V30.2275Z" fill="#1E293B"/>
<path d="M68.5813 17.6473H71.9775V33.7609H68.5813V31.4469C67.3052 33.2771 65.4528 34.1816 63.0652 34.1816C60.904 34.1816 59.0516 33.3612 57.5079 31.7204C55.9642 30.0796 55.2026 28.0812 55.2026 25.7041C55.2026 23.327 55.9642 21.3076 57.5079 19.6667C59.0516 18.0259 60.8834 17.2266 63.0652 17.2266C65.4528 17.2266 67.3052 18.1311 68.5813 19.9402V17.6473ZM60.0396 29.4064C60.9864 30.3741 62.1801 30.879 63.6003 30.879C65.0205 30.879 66.2143 30.3951 67.1611 29.4064C68.1079 28.4388 68.5813 27.1977 68.5813 25.7251C68.5813 24.2526 68.1079 23.0115 67.1611 22.0438C66.2143 21.0762 65.0205 20.5713 63.6003 20.5713C62.1801 20.5713 60.9864 21.0551 60.0396 22.0438C59.0928 23.0115 58.6194 24.2526 58.6194 25.7251C58.6194 27.1977 59.0928 28.4177 60.0396 29.4064Z" fill="#1E293B"/>
<path d="M84.9034 17.2483C87.0645 17.2483 88.917 18.0687 90.4607 19.6885C92.0044 21.3293 92.7659 23.3277 92.7659 25.7258C92.7659 28.0819 92.0044 30.1013 90.4607 31.7421C88.917 33.3829 87.0851 34.2033 84.9034 34.2033C82.5158 34.2033 80.6633 33.2988 79.3872 31.4687V33.7826H75.9911V11.2109H79.3872V19.9409C80.6633 18.1318 82.4952 17.2483 84.9034 17.2483ZM80.7868 29.4071C81.7336 30.3748 82.9274 30.8797 84.3476 30.8797C85.7678 30.8797 86.9616 30.3958 87.9084 29.4071C88.8552 28.4395 89.3286 27.1983 89.3286 25.7258C89.3286 24.2533 88.8552 23.0122 87.9084 22.0445C86.9616 21.0769 85.7678 20.572 84.3476 20.572C82.9274 20.572 81.7336 21.0558 80.7868 22.0445C79.84 23.0122 79.3666 24.2533 79.3666 25.7258C79.3666 27.1983 79.84 28.4184 80.7868 29.4071Z" fill="#1E293B"/>
<path d="M98.569 22.0863C98.569 22.6122 98.8572 23.033 99.4335 23.3485C100.01 23.664 100.71 23.9375 101.533 24.1899C102.356 24.4424 103.18 24.7159 104.044 24.9893C104.908 25.2628 105.608 25.7677 106.185 26.4829C106.761 27.2191 107.049 28.1237 107.049 29.2386C107.049 30.7953 106.473 31.9943 105.3 32.8778C104.126 33.7614 102.665 34.2031 100.895 34.2031C99.3306 34.2031 98.0133 33.8665 96.8813 33.2144C95.7698 32.5413 94.9671 31.6157 94.4525 30.4377L97.3752 28.6917C97.931 30.2483 99.0836 31.0056 100.874 31.0056C102.665 31.0056 103.55 30.3956 103.55 29.1965C103.55 28.6706 103.262 28.2709 102.686 27.9344C102.109 27.6188 101.409 27.3243 100.586 27.0719C99.7628 26.8195 98.9395 26.546 98.0751 26.2725C97.2106 25.999 96.5108 25.5152 95.9139 24.821C95.3376 24.1268 95.0494 23.2433 95.0494 22.1705C95.0494 20.698 95.6051 19.4989 96.696 18.5944C97.8075 17.6898 99.1659 17.248 100.813 17.248C102.109 17.248 103.282 17.5426 104.291 18.1316C105.32 18.7206 106.102 19.541 106.637 20.5928L103.776 22.2336C103.221 21.0135 102.233 20.4035 100.813 20.4035C100.154 20.4035 99.6188 20.5507 99.1659 20.8242C98.7955 21.1187 98.569 21.5394 98.569 22.0863Z" fill="#1E293B"/>
<path d="M127.282 17.248C129.073 17.248 130.514 17.8371 131.604 19.0151C132.695 20.1931 133.251 21.7918 133.251 23.7903V33.7824H129.855V24.0217C129.855 22.9067 129.587 22.0443 129.032 21.4342C128.476 20.8242 127.735 20.5086 126.788 20.5086C125.738 20.5086 124.895 20.8663 124.277 21.5815C123.66 22.2967 123.351 23.3485 123.351 24.779V33.8034H119.955V24.0427C119.955 22.9278 119.687 22.0653 119.173 21.4553C118.658 20.8452 117.917 20.5297 116.991 20.5297C115.962 20.5297 115.118 20.8873 114.459 21.6025C113.801 22.3177 113.471 23.3906 113.471 24.779V33.8034H110.075V17.6898H113.471V19.6251C114.48 18.0474 115.982 17.2691 117.979 17.2691C119.996 17.2691 121.498 18.1105 122.466 19.8144C123.495 18.0895 125.121 17.248 127.282 17.248Z" fill="#1E293B"/>
<path d="M149.388 17.6473H152.784V33.7609H149.388V31.4469C148.112 33.2771 146.259 34.1816 143.872 34.1816C141.71 34.1816 139.858 33.3612 138.314 31.7204C136.771 30.0796 136.009 28.0812 136.009 25.7041C136.009 23.327 136.771 21.3076 138.314 19.6667C139.858 18.0259 141.69 17.2266 143.872 17.2266C146.259 17.2266 148.112 18.1311 149.388 19.9402V17.6473ZM140.846 29.4064C141.793 30.3741 142.987 30.879 144.407 30.879C145.827 30.879 147.021 30.3951 147.968 29.4064C148.914 28.4388 149.388 27.1977 149.388 25.7251C149.388 24.2526 148.914 23.0115 147.968 22.0438C147.021 21.0762 145.827 20.5713 144.407 20.5713C142.987 20.5713 141.793 21.0551 140.846 22.0438C139.899 23.0115 139.426 24.2526 139.426 25.7251C139.426 27.1977 139.899 28.4177 140.846 29.4064Z" fill="#1E293B"/>
<path d="M160.174 20.3602C161.038 18.3617 162.664 17.373 165.031 17.373V21.1385C163.734 21.0543 162.582 21.3699 161.635 22.0851C160.668 22.8003 160.194 23.9994 160.194 25.6402V33.7601H156.798V17.6465H160.194V20.3602H160.174Z" fill="#1E293B"/>
<path d="M176.762 21.014H172.851V28.7552C172.851 29.4284 172.996 29.8912 173.284 30.1857C173.572 30.4802 174.004 30.6274 174.601 30.6695C175.177 30.7116 175.898 30.6905 176.762 30.6485V33.7828C174.148 34.0984 172.275 33.867 171.143 33.0887C170.011 32.3103 169.435 30.8588 169.435 28.7552V21.014H166.533V17.6692H169.435V14.1772L172.831 13.1465V17.6692H176.742V21.014H176.762Z" fill="#1E293B"/>
<path d="M28.0747 31.53C28.0747 31.53 28.0747 31.551 28.0747 31.53C25.7283 36.9783 20.4591 40.4914 14.6548 40.4914C6.56586 40.4914 0 33.7598 0 25.5137C0 19.9391 3.00506 14.8484 7.84198 12.261C7.92431 12.2189 8.00664 12.1768 8.10955 12.1348C7.98606 12.5134 7.90373 12.9341 7.90373 13.3549C7.90373 15.1429 9.1181 16.6365 10.7647 17.0362C10.6412 17.0993 10.4971 17.1624 10.3736 17.2255C7.36858 18.8453 5.47498 22.0427 5.47498 25.5347C5.47498 30.7096 9.5915 34.9378 14.6548 34.9378C17.7216 34.9378 20.562 33.3601 22.2498 30.8148C22.3939 30.6044 22.6409 30.4782 22.8879 30.4782H27.3749C27.9306 30.4572 28.3011 31.0251 28.0747 31.53Z" fill="#0068FF"/>
<path d="M20.7057 28.4158C20.7057 27.8899 21.1173 27.4902 21.6113 27.4902H29.5562C30.0708 27.4902 30.4619 27.911 30.4619 28.4158C30.4619 28.9417 30.0502 29.3414 29.5562 29.3414H21.6113C21.1173 29.3624 20.7057 28.9417 20.7057 28.4158Z" fill="#0068FF"/>
<path d="M21.1184 22.0426C20.7685 21.685 20.7685 21.0749 21.1184 20.7173L24.0823 17.6881C24.4322 17.3305 25.0291 17.3305 25.379 17.6881C25.7289 18.0457 25.7289 18.6558 25.379 19.0134L22.4151 22.0426C22.0446 22.4212 21.4683 22.4212 21.1184 22.0426Z" fill="#0068FF"/>
<path d="M7.96484 0.713066C8.253 1.00757 8.253 1.4914 7.96484 1.78591L5.5361 4.26816C5.24794 4.56266 4.77454 4.56266 4.48638 4.26816C4.19822 3.97365 4.19822 3.48982 4.48638 3.19532L6.91513 0.713066C7.20329 0.418561 7.67669 0.418561 7.96484 0.713066Z" fill="#0068FF"/>
<path d="M23.2789 17.0367L20.459 19.9187C19.821 20.5708 18.8124 20.6339 18.2361 20.0238L14.2431 15.9429C14.8811 15.2697 15.2722 14.3441 15.2722 13.3133C15.2722 11.2308 13.6256 9.5479 11.5879 9.5479C10.5794 9.5479 9.67374 9.94758 9.0151 10.5997L6.07179 7.59155C5.47489 6.9815 5.53664 5.97177 6.1747 5.29861L8.97394 2.43772C9.63258 1.76456 10.6205 1.72249 11.2174 2.33254L23.3612 14.7438C23.9581 15.3539 23.9169 16.3846 23.2789 17.0367Z" fill="#0068FF"/>
<path d="M13.4818 13.2706C13.4818 13.7965 13.276 14.2593 12.9467 14.6169C12.5968 14.9745 12.1234 15.2059 11.5882 15.2059C11.3207 15.2059 11.0737 15.1428 10.8473 15.0586C10.168 14.7641 9.71521 14.091 9.71521 13.2916C9.71521 12.9761 9.79754 12.6816 9.92104 12.4291C10.0239 12.2398 10.1474 12.0715 10.2915 11.9243C10.6208 11.5877 11.0942 11.3773 11.6088 11.3773C12.6379 11.3563 13.4818 12.2188 13.4818 13.2706Z" fill="#0068FF"/>
</svg>
